<?xml version="1.0" encoding="UTF-8"?>
<svg xmlns="http://www.w3.org/2000/svg" width="1360" height="760" viewBox="0 0 1360 760" role="img" aria-labelledby="title desc">
  <title id="title">Weekly SLOC evolution for top-ai-ideas-fullstack</title>
  <desc id="desc">Bars show weekly total SLOC. Orange line shows a 4-week moving average. Dashed lines show pre/post model-shift trends split at 2025-W51.</desc>
  <rect x="0" y="0" width="1360" height="760" fill="#f8fafc" />

  <text x="100" y="38" font-family="Inter, Arial, sans-serif" font-size="30" font-weight="700" fill="#0f172a">Top AI Ideas - Weekly SLOC</text>
  <text x="100" y="62" font-family="Inter, Arial, sans-serif" font-size="15" fill="#334155">Range: 2025-W40 to 2026-W08 | Smoothing window: 4 weeks</text>

  <line x1="100" y1="640.00" x2="1300" y2="640.00" stroke="#d7dde5" stroke-width="1" /><line x1="100" y1="546.67" x2="1300" y2="546.67" stroke="#d7dde5" stroke-width="1" /><line x1="100" y1="453.33" x2="1300" y2="453.33" stroke="#d7dde5" stroke-width="1" /><line x1="100" y1="360.00" x2="1300" y2="360.00" stroke="#d7dde5" stroke-width="1" /><line x1="100" y1="266.67" x2="1300" y2="266.67" stroke="#d7dde5" stroke-width="1" /><line x1="100" y1="173.33" x2="1300" y2="173.33" stroke="#d7dde5" stroke-width="1" /><line x1="100" y1="80.00" x2="1300" y2="80.00" stroke="#d7dde5" stroke-width="1" />
  <text x="84" y="644.00" text-anchor="end" font-family="Inter, Arial, sans-serif" font-size="14" fill="#324055">0</text><text x="84" y="550.67" text-anchor="end" font-family="Inter, Arial, sans-serif" font-size="14" fill="#324055">20,000</text><text x="84" y="457.33" text-anchor="end" font-family="Inter, Arial, sans-serif" font-size="14" fill="#324055">40,000</text><text x="84" y="364.00" text-anchor="end" font-family="Inter, Arial, sans-serif" font-size="14" fill="#324055">60,000</text><text x="84" y="270.67" text-anchor="end" font-family="Inter, Arial, sans-serif" font-size="14" fill="#324055">80,000</text><text x="84" y="177.33" text-anchor="end" font-family="Inter, Arial, sans-serif" font-size="14" fill="#324055">100,000</text><text x="84" y="84.00" text-anchor="end" font-family="Inter, Arial, sans-serif" font-size="14" fill="#324055">120,000</text>

  <line x1="100" y1="80" x2="100" y2="640" stroke="#334155" stroke-width="1.2" />
  <line x1="100" y1="640" x2="1300" y2="640" stroke="#334155" stroke-width="1.2" />

  <rect x="108.00" y="586.80" width="41.14" height="53.20" fill="#7aa6d8" opacity="0.9" /><rect x="165.14" y="562.31" width="41.14" height="77.69" fill="#7aa6d8" opacity="0.9" /><rect x="222.29" y="530.52" width="41.14" height="109.48" fill="#7aa6d8" opacity="0.9" /><rect x="279.43" y="529.82" width="41.14" height="110.18" fill="#7aa6d8" opacity="0.9" /><rect x="336.57" y="521.75" width="41.14" height="118.25" fill="#7aa6d8" opacity="0.9" /><rect x="393.71" y="516.85" width="41.14" height="123.15" fill="#7aa6d8" opacity="0.9" /><rect x="450.86" y="500.10" width="41.14" height="139.90" fill="#7aa6d8" opacity="0.9" /><rect x="508.00" y="483.97" width="41.14" height="156.03" fill="#7aa6d8" opacity="0.9" /><rect x="565.14" y="475.64" width="41.14" height="164.36" fill="#7aa6d8" opacity="0.9" /><rect x="622.29" y="476.62" width="41.14" height="163.38" fill="#7aa6d8" opacity="0.9" /><rect x="679.43" y="458.41" width="41.14" height="181.59" fill="#7aa6d8" opacity="0.9" /><rect x="736.57" y="427.12" width="41.14" height="212.88" fill="#7aa6d8" opacity="0.9" /><rect x="793.71" y="423.35" width="41.14" height="216.65" fill="#7aa6d8" opacity="0.9" /><rect x="850.86" y="399.65" width="41.14" height="240.35" fill="#7aa6d8" opacity="0.9" /><rect x="908.00" y="381.73" width="41.14" height="258.27" fill="#7aa6d8" opacity="0.9" /><rect x="965.14" y="352.84" width="41.14" height="287.16" fill="#7aa6d8" opacity="0.9" /><rect x="1022.29" y="352.23" width="41.14" height="287.77" fill="#7aa6d8" opacity="0.9" /><rect x="1079.43" y="318.62" width="41.14" height="321.38" fill="#7aa6d8" opacity="0.9" /><rect x="1136.57" y="296.95" width="41.14" height="343.05" fill="#7aa6d8" opacity="0.9" /><rect x="1193.71" y="243.52" width="41.14" height="396.48" fill="#7aa6d8" opacity="0.9" /><rect x="1250.86" y="199.92" width="41.14" height="440.08" fill="#7aa6d8" opacity="0.9" />

  <polyline points="128.57,586.80 185.71,574.55 242.86,559.87 300.00,552.36 357.14,536.10 414.29,524.74 471.43,517.13 528.57,505.67 585.71,494.14 642.86,484.08 700.00,473.66 757.14,459.45 814.29,446.37 871.43,427.13 928.57,407.96 985.71,389.39 1042.86,371.61 1100.00,351.35 1157.14,330.16 1214.29,302.83 1271.43,264.75" fill="none" stroke="#f59e0b" stroke-width="4" stroke-linecap="round" stroke-linejoin="round" />
  <line x1="128.57" y1="570.38" x2="700.00" y2="455.59" stroke="#dc2626" stroke-width="3" stroke-dasharray="10 8" />
  <line x1="757.14" y1="448.87" x2="1271.43" y2="230.31" stroke="#0f766e" stroke-width="3" stroke-dasharray="10 8" />
  <line x1="757.14" y1="80" x2="757.14" y2="640" stroke="#64748b" stroke-width="1.5" stroke-dasharray="5 6" />
  <text x="767.14" y="100" font-family="Inter, Arial, sans-serif" font-size="12" fill="#334155">W51: GPT-5.2/5.3 Codex shift</text>

  <text x="128.57" y="670" text-anchor="middle" font-family="Inter, Arial, sans-serif" font-size="13" fill="#324055">W40</text><text x="300.00" y="670" text-anchor="middle" font-family="Inter, Arial, sans-serif" font-size="13" fill="#324055">W43</text><text x="471.43" y="670" text-anchor="middle" font-family="Inter, Arial, sans-serif" font-size="13" fill="#324055">W46</text><text x="642.86" y="670" text-anchor="middle" font-family="Inter, Arial, sans-serif" font-size="13" fill="#324055">W49</text><text x="814.29" y="670" text-anchor="middle" font-family="Inter, Arial, sans-serif" font-size="13" fill="#324055">W52</text><text x="985.71" y="670" text-anchor="middle" font-family="Inter, Arial, sans-serif" font-size="13" fill="#324055">W03</text><text x="1157.14" y="670" text-anchor="middle" font-family="Inter, Arial, sans-serif" font-size="13" fill="#324055">W06</text><text x="1271.43" y="670" text-anchor="middle" font-family="Inter, Arial, sans-serif" font-size="13" fill="#324055">W08</text>

  <g transform="translate(970, 88)">
    <rect x="0" y="0" width="322" height="122" rx="10" fill="#ffffff" stroke="#d7dde5" />
    <rect x="18" y="18" width="24" height="12" fill="#7aa6d8" opacity="0.9" />
    <text x="52" y="29" font-family="Inter, Arial, sans-serif" font-size="14" fill="#1f2937">Weekly cloc_total</text>
    <line x1="18" y1="50" x2="42" y2="50" stroke="#f59e0b" stroke-width="4" />
    <text x="52" y="54" font-family="Inter, Arial, sans-serif" font-size="14" fill="#1f2937">4-week moving average</text>
    <line x1="18" y1="74" x2="42" y2="74" stroke="#dc2626" stroke-width="3" stroke-dasharray="10 8" />
    <text x="52" y="78" font-family="Inter, Arial, sans-serif" font-size="14" fill="#1f2937">Trend W40-W50</text>
    <line x1="18" y1="98" x2="42" y2="98" stroke="#0f766e" stroke-width="3" stroke-dasharray="10 8" />
    <text x="52" y="102" font-family="Inter, Arial, sans-serif" font-size="14" fill="#1f2937">Trend W51-W08</text>
  </g>
</svg>
